<?xml version="1.0" encoding="utf-8"?>
<!-- Generator: Adobe Illustrator 17.0.0, SVG Export Plug-In . SVG Version: 6.00 Build 0)  -->
<!DOCTYPE svg PUBLIC "-//W3C//DTD SVG 1.1//EN" "http://www.w3.org/Graphics/SVG/1.1/DTD/svg11.dtd">
<svg version="1.1" id="Layer_1" xmlns="http://www.w3.org/2000/svg" xmlns:xlink="http://www.w3.org/1999/xlink" x="0px" y="0px"
	 width="1365.329px" height="312.291px" viewBox="0 0 1365.329 312.291" enable-background="new 0 0 1365.329 312.291"
	 xml:space="preserve">
<g>
	<g>
		<path fill="#231F20" d="M143.866,148.578v48.661h20.439v-48.661H143.866z"/>
		<path fill="#231F20" d="M143.866,123.879v14.555h20.439v-14.555H143.866z"/>
		<path fill="#231F20" d="M105.159,131.964c0,0,0,14.889,0,21.777c-8.949-4.559-22.995-6.351-34.858-6.351
			c-38.952,0-52.753,13.746-52.753,25.523c0,11.782,13.801,25.497,52.753,25.497c12.243,0,26.892-2.294,35.937-6.643
			c0,0.992,0,5.458,0,5.458h19.368v-65.26H105.159z M70.301,187.904c-22.338,0-32.347-7.54-32.347-14.991
			c0-7.442,10.009-14.976,32.347-14.976c25.705,0,34.858,7.721,34.858,14.976C105.159,180.141,96.006,187.904,70.301,187.904z"/>
		<g>
			<path fill="#231F20" d="M213.012,97.613h-25.696V17.794h-0.641L106.19,81.436L26.337,17.794h-0.649v79.819H0V0h32.11
				l74.286,58.986L181.005,0h32.008V97.613z"/>
			<path fill="#231F20" d="M442.718,97.613h-28.095l-17.864-21.838H292.366l-17.864,21.838h-28.089L328.404,0h32.325L442.718,97.613
				z M384.286,61.21l-39.483-47.297L304.838,61.21H384.286z"/>
			<path fill="#231F20" d="M651.874,97.613h-29.885l-41.945-37.21h-78.244v37.21h-25.689V0h122.241
				c16.272,0,29.038,2.763,38.318,8.291c9.281,5.526,13.913,13.011,13.913,22.449c0,8.268-3.777,14.92-11.339,19.954
				c-7.001,4.673-16.63,7.644-28.903,8.895L651.874,97.613z M594.496,45.843c19.835,0,29.758-5.037,29.758-15.103
				c0-10.784-10.706-16.186-32.11-16.186h-90.345v31.289H594.496z"/>
			<path fill="#231F20" d="M848.392,14.554h-74.071v83.059h-25.69V14.554h-74.069V0h173.83V14.554z"/>
			<path fill="#231F20" d="M904.259,97.613h-25.69V0h25.69V97.613z"/>
			<path fill="#231F20" d="M1132.048,97.613h-31.962L981.759,17.564v80.049h-25.688V0h31.896l118.384,80.089V0h25.697V97.613z"/>
			<path fill="#231F20" d="M1361.745,97.613h-28.095l-17.865-21.838h-104.393l-17.863,21.838h-28.088L1247.429,0h32.325
				L1361.745,97.613z M1303.313,61.21l-39.481-47.297l-39.968,47.297H1303.313z"/>
		</g>
		<g>
			<path fill="#231F20" d="M356.103,129.543h-74.07v83.058h-25.69v-83.058h-74.07v-14.555h173.83V129.543z"/>
			<path fill="#231F20" d="M557.767,212.601h-29.884l-41.946-37.21h-78.243v37.21h-25.689v-97.613h122.241
				c16.273,0,29.037,2.763,38.317,8.292c9.282,5.525,13.915,13.007,13.915,22.449c0,8.268-3.778,14.917-11.341,19.953
				c-6.999,4.673-16.63,7.641-28.902,8.895L557.767,212.601z M500.389,160.827c19.836,0,29.759-5.033,29.759-15.098
				c0-10.788-10.708-16.186-32.111-16.186h-90.344v31.284H500.389z"/>
			<path fill="#231F20" d="M751.5,212.601H589.228v-97.613h156.276v14.555H614.918v25.077h90.773v14.561h-90.773v28.858H751.5
				V212.601z"/>
			<path fill="#231F20" d="M957.662,212.601h-31.96L807.374,132.55v80.051h-25.69v-97.613h31.896l118.384,80.089v-80.089h25.697
				V212.601z"/>
			<path fill="#231F20" d="M1153.111,129.543h-74.071v83.058h-25.689v-83.058h-74.069v-14.555h173.83V129.543z"/>
			<path fill="#231F20" d="M1365.688,167.283c0,16.004-10.419,25.315-31.254,35.206c-18.272,8.633-40.964,12.947-68.08,12.947
				c-27.397,0-50.235-4.364-68.503-13.082c-20.842-9.889-31.256-22.789-31.256-38.698c0-15.639,10.556-28.492,31.683-38.558
				c18.554-8.811,41.243-13.215,68.076-13.215c26.974,0,49.597,4.404,67.865,13.215
				C1355.198,135.164,1365.688,151.644,1365.688,167.283z M1338.932,163.656c0-11.411-7.712-20.67-23.123-27.77
				c-13.271-6.115-29.76-9.172-49.455-9.172c-21.553,0-39.101,3.484-52.665,10.453c-13.557,6.961-20.337,15.798-20.337,26.489
				c0,11.054,6.637,19.979,19.908,26.764c13.28,6.789,30.969,10.185,53.094,10.185c21.977,0,39.571-3.423,52.77-10.247
				C1332.328,183.525,1338.932,174.624,1338.932,163.656z"/>
		</g>
	</g>
	<g>
		<path fill="#ED4133" d="M444.805,280.163c0,18.099-14.66,32.128-33.574,32.128c-18.914,0-33.574-14.029-33.574-32.128
			c0-18.191,14.66-31.944,33.574-31.944C430.145,248.219,444.805,262.065,444.805,280.163z M388.517,280.163
			c0,12.58,10.407,22.533,22.804,22.533c12.399,0,22.534-9.953,22.534-22.533s-10.136-22.352-22.534-22.352
			C398.833,257.811,388.517,267.584,388.517,280.163z"/>
		<path fill="#ED4133" d="M555.301,285.594c0,16.56-10.407,26.698-27.511,26.698c-17.104,0-27.602-10.137-27.602-26.698v-37.104
			h10.678v37.104c0,10.68,6.607,17.103,17.014,17.103c10.317,0,16.743-6.334,16.743-17.103v-37.104h10.678V285.594z"/>
		<path fill="#ED4133" d="M639.007,258.081v53.757h-10.68v-53.757h-19.999v-9.592h50.769v9.592H639.007z"/>
		<path fill="#ED4133" d="M751.583,302.154v9.684h-38.1v-63.349h10.68v53.665H751.583z"/>
		<path fill="#ED4133" d="M817.736,258.081v17.106h30.948v9.592h-30.948v17.467h35.655v9.592h-46.335v-63.349h45.247v9.592H817.736z
			"/>
		<path fill="#ED4133" d="M934.836,258.081v53.757h-10.68v-53.757h-19.999v-9.592h50.769v9.592H934.836z"/>
	</g>
</g>
</svg>
